# xmcd
#
# Track frame offsets: 
#        150
#        7200
#        29241
#        35025
#        57150
#        75378
#        92553
#        111303
#        128028
#        149628
#        166203
#
# Disc length: 2483 seconds
#
# Revision: 0
# Processed by: cddbd v1.5.2PL0 Copyright (c) Steve Scherf et al.
# Submitted via: ExactAudioCopyFreeDBPlugin 1.0
#
DISCID=9809b10b
DTITLE=林俊杰 - 西界 (内地版)
DYEAR=2007
DGENRE=Pop
TTITLE0=独白
TTITLE1=杀手
TTITLE2=杀手@续
TTITLE3=西界
TTITLE4=K-O
TTITLE5=大男人 · 小女孩
TTITLE6=L-O-V-E
TTITLE7=发现爱
TTITLE8=不流泪的机场
TTITLE9=BABY BABY
TTITLE10=自由不变
EXTD=
EXTT0=
EXTT1=
EXTT2=
EXTT3=
EXTT4=
EXTT5=
EXTT6=
EXTT7=
EXTT8=
EXTT9=
EXTT10=
PLAYORDER=
